<mxfile host="65bd71144e">
    <diagram id="k7ImIi0T_8b3qyLIBoio" name="Page-1">
        <mxGraphModel dx="1288" dy="1057" grid="1" gridSize="10" guides="1" tooltips="1" connect="1" arrows="1" fold="1" page="1" pageScale="1" pageWidth="3000" pageHeight="2800" math="0" shadow="0">
            <root>
                <mxCell id="0"/>
                <mxCell id="1" parent="0"/>
                <mxCell id="12" value="&lt;span style=&quot;font-size: 18px&quot;&gt;countAccessNumberAndCheckDate&lt;/span&gt;" style="rounded=0;whiteSpace=wrap;html=1;verticalAlign=top;" vertex="1" parent="1">
                    <mxGeometry x="890" y="120" width="470" height="350" as="geometry"/>
                </mxCell>
                <mxCell id="2" value="&lt;font style=&quot;font-size: 18px&quot;&gt;Firestore / access_code_register / UID&lt;/font&gt;" style="rounded=0;whiteSpace=wrap;html=1;verticalAlign=top;" vertex="1" parent="1">
                    <mxGeometry x="290" y="120" width="470" height="350" as="geometry"/>
                </mxCell>
                <mxCell id="3" value="" style="ellipse;shape=cloud;whiteSpace=wrap;html=1;fillColor=#0050ef;fontColor=#ffffff;strokeColor=#001DBC;" vertex="1" parent="1">
                    <mxGeometry x="220" y="80" width="150" height="90" as="geometry"/>
                </mxCell>
                <mxCell id="4" value="opTcXtvOO4XE5uP..." style="text;html=1;strokeColor=default;fillColor=none;align=center;verticalAlign=middle;whiteSpace=wrap;rounded=0;fontSize=18;" vertex="1" parent="1">
                    <mxGeometry x="310" y="180" width="190" height="30" as="geometry"/>
                </mxCell>
                <mxCell id="5" value="Kgweg023Gboldffk..." style="text;html=1;strokeColor=none;fillColor=none;align=center;verticalAlign=middle;whiteSpace=wrap;rounded=0;fontSize=18;" vertex="1" parent="1">
                    <mxGeometry x="310" y="210" width="190" height="30" as="geometry"/>
                </mxCell>
                <mxCell id="8" value="" style="shape=flexArrow;endArrow=classic;html=1;fontSize=18;" edge="1" parent="1">
                    <mxGeometry width="50" height="50" relative="1" as="geometry">
                        <mxPoint x="500" y="194.86" as="sourcePoint"/>
                        <mxPoint x="535" y="194.86" as="targetPoint"/>
                    </mxGeometry>
                </mxCell>
                <mxCell id="9" value="1/4/2022 22:34:11...&lt;br&gt;28/3/2022 12:11:01...&lt;br&gt;17/2/2022 09:16:38..." style="text;html=1;strokeColor=default;fillColor=none;align=center;verticalAlign=top;whiteSpace=wrap;rounded=0;fontSize=18;" vertex="1" parent="1">
                    <mxGeometry x="540" y="180" width="200" height="80" as="geometry"/>
                </mxCell>
                <mxCell id="10" value="" style="shape=flexArrow;endArrow=classic;startArrow=classic;html=1;fontSize=18;fillColor=#F2F2F2;" edge="1" parent="1">
                    <mxGeometry width="100" height="100" relative="1" as="geometry">
                        <mxPoint x="740" y="219.5" as="sourcePoint"/>
                        <mxPoint x="910" y="219.5" as="targetPoint"/>
                    </mxGeometry>
                </mxCell>
                <mxCell id="13" value="get() each date stored in UID document&lt;br&gt;Check if() date has expired via remote globals value&lt;br&gt;if() specific date has expired, remove it&lt;br&gt;if() has not expired, keep it&lt;br&gt;Count how many items now remain in List[]&lt;br&gt;if ( items &amp;lt; maxAllowed ), allow code to open&lt;br&gt;if ( items == maxAllowed ), deny" style="text;html=1;strokeColor=default;fillColor=none;align=center;verticalAlign=top;whiteSpace=wrap;rounded=0;fontSize=18;" vertex="1" parent="1">
                    <mxGeometry x="910" y="180" width="430" height="230" as="geometry"/>
                </mxCell>
                <mxCell id="14" value="&lt;span style=&quot;font-size: 18px&quot;&gt;updateAccessDocAndCheckNumber&lt;/span&gt;" style="rounded=0;whiteSpace=wrap;html=1;verticalAlign=top;" vertex="1" parent="1">
                    <mxGeometry x="1490" y="120" width="470" height="350" as="geometry"/>
                </mxCell>
                <mxCell id="15" value="" style="shape=flexArrow;endArrow=classic;startArrow=classic;html=1;fontSize=18;fillColor=#F2F2F2;" edge="1" parent="1">
                    <mxGeometry width="100" height="100" relative="1" as="geometry">
                        <mxPoint x="1340" y="310" as="sourcePoint"/>
                        <mxPoint x="1510" y="310" as="targetPoint"/>
                    </mxGeometry>
                </mxCell>
                <mxCell id="16" value="update() or set() document with new date&lt;br&gt;Count how many items are now in document" style="text;html=1;strokeColor=default;fillColor=none;align=center;verticalAlign=top;whiteSpace=wrap;rounded=0;fontSize=18;" vertex="1" parent="1">
                    <mxGeometry x="1510" y="180" width="430" height="230" as="geometry"/>
                </mxCell>
            </root>
        </mxGraphModel>
    </diagram>
</mxfile>